<?xml version="1.0" encoding="utf-8"?>
<!-- Generator: Adobe Illustrator 23.0.3, SVG Export Plug-In . SVG Version: 6.00 Build 0)  -->
<svg version="1.1" id="Layer_1" xmlns="http://www.w3.org/2000/svg" xmlns:xlink="http://www.w3.org/1999/xlink" x="0px" y="0px"
	 viewBox="0 0 62 62" style="enable-background:new 0 0 62 62;" xml:space="preserve">
<style type="text/css">
	.st0{fill:#4282C9;}
	.st1{fill:#FFFFFF;}
</style>
<g id="phone" transform="translate(-7191.387 188.811)">
	<g transform="matrix(1, 0, 0, 1, 7191.39, -188.81)">
		<path id="Path_73-2" class="st0" d="M31,0c17.1,0,31,13.9,31,31S48.1,62,31,62S0,48.1,0,31c0,0,0,0,0,0C0,13.9,13.9,0,31,0z"/>
	</g>
	<g id="Group_154" transform="translate(7208.814 -173.539)">
		<g transform="matrix(1, 0, 0, 1, -17.43, -15.27)">
			<path id="Path_69-2" class="st1" d="M11.4,22.1c0.4-1.8,1.2-3.5,2.3-4.9c1.2-1.5,2.5-2.9,4-4.2c0.6-0.5,1.5-0.5,2,0.1
				c2.3,2.3,4.3,4.8,6.2,7.4c0.4,0.5,0.3,1.3-0.3,1.7c-1.4,1.1-2.7,2.4-3.8,3.8c-0.5,0.5-0.5,1.2-0.1,1.7c3.3,5,7.7,9,13,11.8
				c1.2,0.6,1.5,0.6,2.3-0.4c0.9-1,1.6-2.1,2.4-3.3c0.9-1.3,1.4-1.4,2.8-0.6c2.4,1.6,4.8,3.1,7.3,4.7c0.4,0.2,0.7,0.5,0.9,0.9v0.7
				c0,0.1-0.1,0.2-0.1,0.2c-1.9,2.9-4.5,5.4-7.5,7.1c-0.7,0.4-1.4,0.5-2.2,0.4c-0.4,0-0.8-0.1-1.2-0.2c-3.1-0.7-6.1-1.9-8.9-3.4
				c-5.7-2.9-10.5-7.1-14.2-12.3c-2.2-3.1-3.8-6.5-5-10.1L11.4,22.1z"/>
		</g>
	</g>
</g>
</svg>
